<svg width="256" height="256" viewBox="0 0 256 256">
  <circle id="circle" cx="128" cy="128" r="121" fill="#231f20"/>
  <path id="number" fill="#fff" d="M127.1 67a41.8 41.8 0 0 1 13.6 2.2 31.4 31.4 0 0 1 10.9 6.3 29.3 29.3 0 0 1 7.2 10 32.7 32.7 0 0 1 2.6 13.4 35.4 35.4 0 0 1-1.9 11.8 48.3 48.3 0 0 1-5.2 10.4 76.9 76.9 0 0 1-7.6 9.7q-4.3 4.7-9.1 9.6l-30.2 30.9a59.7 59.7 0 0 1 6.5-1.4 40.4 40.4 0 0 1 6.3-.5h38.4a5 5 0 0 1 3.7 1.4 4.8 4.8 0 0 1 1.4 3.5v8.6H87.3V178a8.9 8.9 0 0 1 .6-3.1 8.3 8.3 0 0 1 2-3l36.7-36.9q4.6-4.6 8.3-8.9a65.1 65.1 0 0 0 6.4-8.6 40.1 40.1 0 0 0 4.1-8.8 30.5 30.5 0 0 0 1.4-9.5 22.7 22.7 0 0 0-1.6-8.8 17.1 17.1 0 0 0-4.4-6.3 18.6 18.6 0 0 0-6.6-3.7 25.7 25.7 0 0 0-8.1-1.2 24.2 24.2 0 0 0-8 1.3 21.4 21.4 0 0 0-11.3 9 21 21 0 0 0-2.8 6.9 6.4 6.4 0 0 1-1.9 3.4 5.2 5.2 0 0 1-3.4 1h-1.6l-7.4-1.3A42.2 42.2 0 0 1 94 85.4a33.1 33.1 0 0 1 8.1-10.1 34.6 34.6 0 0 1 11.3-6.2 43.1 43.1 0 0 1 13.7-2.1z"/>
</svg>
