<svg width="256" height="256" viewBox="0 0 256 256">
  <circle id="circle" cx="128" cy="128" r="121" fill="#231f20"/>
  <path id="number" fill="#fff" d="M127.6 67a41.8 41.8 0 0 1 13.4 2.1 31.3 31.3 0 0 1 10.6 5.9 26.8 26.8 0 0 1 6.9 9.3 28.8 28.8 0 0 1 2.5 12.1 31.2 31.2 0 0 1-1.4 9.7 23.6 23.6 0 0 1-4 7.5 23.9 23.9 0 0 1-6.3 5.5 35 35 0 0 1-8.2 3.6q11.2 3 16.8 9.9t5.6 17.4a32.8 32.8 0 0 1-3 14.2 32 32 0 0 1-8.2 10.8 36.7 36.7 0 0 1-12.1 6.8 45.7 45.7 0 0 1-14.8 2.4 47.2 47.2 0 0 1-15.6-2.3 32.3 32.3 0 0 1-11-6.3 33.4 33.4 0 0 1-7.4-9.5 70.9 70.9 0 0 1-4.9-11.9l6.1-2.6a8.5 8.5 0 0 1 3.4-.7 5.8 5.8 0 0 1 2.8.7 4.3 4.3 0 0 1 1.9 2.1l.3.7.3.8q1.1 2.3 2.7 5.2a22.1 22.1 0 0 0 4.3 5.5 23.3 23.3 0 0 0 6.8 4.3 25.2 25.2 0 0 0 10 1.8 26.2 26.2 0 0 0 10.5-2 22.9 22.9 0 0 0 7.5-5.1 21.3 21.3 0 0 0 4.5-7 20.6 20.6 0 0 0 1.5-7.6 27.5 27.5 0 0 0-1.2-8.5 14.6 14.6 0 0 0-4.5-6.6 23.1 23.1 0 0 0-9-4.4 55.8 55.8 0 0 0-14.7-1.6v-10.3a44.4 44.4 0 0 0 12.4-1.5 24.2 24.2 0 0 0 8.4-4.2 15.4 15.4 0 0 0 4.8-6.3 21.7 21.7 0 0 0 1.5-8.2 22 22 0 0 0-1.6-8.6 16.6 16.6 0 0 0-4.3-6.1 17.9 17.9 0 0 0-6.4-3.6 26.1 26.1 0 0 0-8-1.2 24.2 24.2 0 0 0-8 1.3 21.7 21.7 0 0 0-6.5 3.6 20.7 20.7 0 0 0-4.8 5.4 25.5 25.5 0 0 0-2.9 6.8 6.4 6.4 0 0 1-1.9 3.4 5 5 0 0 1-3.3 1h-1.5l-7.4-1.3a42.2 42.2 0 0 1 4.3-13.9 33.1 33.1 0 0 1 8.1-10.1 34.6 34.6 0 0 1 11.3-6.2 43.1 43.1 0 0 1 13.7-2.2z"/>
</svg>
