<svg xmlns="http://www.w3.org/2000/svg"><symbol id="blogger-icon" viewBox="0 0 256 256"><g id="twitter"><rect id="background" width="251" height="251" x="2.5" y="2.5" rx="17.9" ry="17.9"/></g><path id="facebook" fill="#fff" d="M202.1 106.4c-20 0-16.6-9.9-16.6-16.1s-4.2-46.8-59-46.8c-34.7 0-47.1 1.5-59.8 12.4s-18.4 16.3-18.4 68c0 53.9 1.6 58.3 13 71.4 12.7 14.6 20.3 17.2 71 17.2 56.3 0 58.8-3.2 69.2-13.5 17-17 15.3-38.3 15.3-53 0-22.9 3.4-39.6-14.7-39.6zM99.4 86.7H140a9.9 9.9 0 0 1 0 19.8H99.4a9.9 9.9 0 0 1 0-19.8zm75.6 73a9.9 9.9 0 0 1-9.9 9.9H99.4a9.9 9.9 0 0 1-9.9-9.9 9.9 9.9 0 0 1 9.9-9.9h65.7a9.9 9.9 0 0 1 9.9 9.9z"/></symbol><symbol id="error-icon" viewBox="0 0 256 203"><path d="M252.8 176.4L141.1 8.9a15.2 15.2 0 0 0-25.2 0L4.2 176.4A15.2 15.2 0 0 0 16.8 200h223.4a15.2 15.2 0 0 0 12.6-23.6zm-124.3 5a12 12 0 1 1 12-12 12 12 0 0 1-12 12zm2.7-43.2c-1.1 5.5-5.5 5.5-6.6 0s-17.5-105 5.5-105 2.2 99.5 1.1 105z"/></symbol><symbol id="fb-icon" viewBox="0 0 256 256"><g id="facebook"><rect id="background" width="250" height="250" x="3" y="3" rx="16.9" ry="16.9"/><path id="fb-icon" fill="#fff" d="M214.5 41.7v34.6h-23.3c-11 0-15 6.3-15 14.3v27.7h38.3l-6 38h-32.3V253h-39v-97h-32.7v-37.3h32s.3 9.3.3-31 27.3-46 49-46z"/></g></symbol><symbol id="instagram-icon" viewBox="0 0 256 256"><g id="twitter"><rect id="background" width="251" height="251" x="2.5" y="2.5" rx="17.9" ry="17.9"/></g><g id="facebook" fill="#fff"><path d="M163.6 216.6H92.4a53 53 0 0 1-53-53V92.4a53 53 0 0 1 53-53h71.2a53 53 0 0 1 53 53v71.2a53 53 0 0 1-53 53zM92.4 57.5a35 35 0 0 0-34.9 34.9v71.2a35 35 0 0 0 34.9 34.9h71.2a35 35 0 0 0 34.9-34.9V92.4a35 35 0 0 0-34.9-34.9z"/><path d="M128 176.1a48.1 48.1 0 1 1 48.1-48.1 48.2 48.2 0 0 1-48.1 48.1zm0-80.7a32.6 32.6 0 1 0 32.6 32.6A32.6 32.6 0 0 0 128 95.4z"/><circle cx="175.7" cy="80.3" r="7.3"/></g></symbol><symbol id="twitter-icon" viewBox="0 0 256 256"><rect id="background" width="251" height="251" x="2.5" y="2.5" rx="17.9" ry="17.9"/><path id="twitter-icon" fill="#fff" d="M98.9 191.7c59.2 0 91.6-49 91.6-91.6 0-1.4 0-2.8-.1-4.2a65.5 65.5 0 0 0 16.1-16.7 64.2 64.2 0 0 1-18.5 5.2 32.3 32.3 0 0 0 14.2-17.8 64.5 64.5 0 0 1-20.4 7.8 32.2 32.2 0 0 0-54.8 29.4 91.4 91.4 0 0 1-66.5-33.7 32.2 32.2 0 0 0 10 43 31.9 31.9 0 0 1-14.6-4v.4a32.2 32.2 0 0 0 25.8 31.6 32.1 32.1 0 0 1-14.5.6 32.2 32.2 0 0 0 30 22.3 64.6 64.6 0 0 1-40 13.8 65.5 65.5 0 0 1-7.7-.4 91.1 91.1 0 0 0 49.3 14.5"/></symbol></svg>