<svg xmlns="http://www.w3.org/2000/svg"><symbol id="fb-icon" viewBox="0 0 256 256"><rect width="250" height="250" x="3" y="3" fill="#3b5998" rx="16.9" ry="16.9"/><path fill="#fff" d="M214.5 41.7v34.6h-23.3c-11 0-15 6.3-15 14.3v27.7h38.3l-6 38h-32.3V253h-39v-97h-32.7v-37.3h32s.3 9.3.3-31 27.3-46 49-46z"/></symbol><symbol id="twitter-icon" viewBox="0 0 256 256"><rect width="251" height="251" x="2.5" y="2.5" fill="#1da1f2" rx="17.9" ry="17.9"/><path fill="#fff" d="M98.9 191.7c59.2 0 91.6-49 91.6-91.6 0-1.4 0-2.8-.1-4.2a65.5 65.5 0 0 0 16.1-16.7 64.2 64.2 0 0 1-18.5 5.2 32.3 32.3 0 0 0 14.2-17.8 64.5 64.5 0 0 1-20.4 7.8 32.2 32.2 0 0 0-54.8 29.4 91.4 91.4 0 0 1-66.5-33.7 32.2 32.2 0 0 0 10 43 31.9 31.9 0 0 1-14.6-4v.4a32.2 32.2 0 0 0 25.8 31.6 32.1 32.1 0 0 1-14.5.6 32.2 32.2 0 0 0 30 22.3 64.6 64.6 0 0 1-40 13.8 65.5 65.5 0 0 1-7.7-.4 91.1 91.1 0 0 0 49.3 14.5"/></symbol></svg>