<svg xmlns="http://www.w3.org/2000/svg" width="397.5" height="132" data-name="Layer 1" viewBox="0 0 397.5 132"><path fill="#2b2e6f" d="M106.9 74.3a23.7 23.7 0 0 1-6.3 16.1l-1.2 1.2-37.7 38.2L24 91.7l-1.2-1.2a23.8 23.8 0 1 1 38.9-26.4 23.8 23.8 0 0 1 45.2 10.3zM24 91.7l-1.2-1.2zm76.6-1.3l-1.2 1.2z"/><ellipse cx="16.7" cy="38.3" fill="#2b2e6f" rx="9.7" ry="13.9"/><ellipse cx="107.1" cy="38.3" fill="#2b2e6f" rx="9.7" ry="13.9"/><ellipse cx="47" cy="20.2" fill="#2b2e6f" rx="11.9" ry="18.1"/><ellipse cx="76.6" cy="20.2" fill="#2b2e6f" rx="11.9" ry="18.1"/><path fill="#2b2e6f" d="M136.2 4.3h7.8v53.6h25.7v6.5h-33.5zm79.7 38.2c0 15.9-11.1 22.9-21.5 22.9s-20.7-8.6-20.7-22.2 9.5-22.8 21.4-22.8 20.8 9 20.8 22.1zm-34.1.4c0 9.4 5.3 16.6 13 16.6s13.1-7 13.1-16.7c0-7.3-3.7-16.5-12.9-16.5s-13.3 8.5-13.3 16.6zM228 21.3l9.4 25.5c1.1 2.9 2.1 6.2 2.9 8.8h.2c.8-2.6 1.7-5.9 2.8-9l8.6-25.3h8.3l-12 30.7c-5.6 14.8-9.4 22.3-14.8 27a22.2 22.2 0 0 1-9.6 5l-2-6.5a20.9 20.9 0 0 0 6.9-3.8 24.7 24.7 0 0 0 6.6-8.7 5.7 5.7 0 0 0 .6-1.9 5.4 5.4 0 0 0-.6-2l-15.9-39.8zM297 54a72.2 72.2 0 0 0 .6 10.3h-7l-.6-5.4h-.3a16.1 16.1 0 0 1-13.2 6.4c-8.7 0-13.2-6.1-13.2-12.4 0-10.4 9.3-16.1 25.9-16V36c0-3.5-1-10-9.8-9.9a20.8 20.8 0 0 0-11.3 3.2l-1.8-5.3a27.9 27.9 0 0 1 14.3-3.7c13.2 0 16.4 9 16.4 17.5zm-7.6-11.7c-8.6-.2-18.3 1.3-18.3 9.7 0 5.2 3.4 7.5 7.3 7.5a10.9 10.9 0 0 0 10.6-7.2 8.8 8.8 0 0 0 .4-2.5zm20.2-41.2h7.8v63.3h-7.8zM136.3 69.9a90.4 90.4 0 0 1 14.9-1.2c8.3 0 13.7 1.6 17.4 4.9a15.3 15.3 0 0 1 4.7 11.5c0 7.8-5 13.1-11.2 15.2v.3c4.5 1.6 7.3 5.9 8.7 12.1 2 8.4 3.4 14.2 4.6 16.5h-8c-1-1.8-2.3-6.9-3.9-14.3s-5.1-11.4-12.1-11.7h-7.3v26h-7.8zm7.8 27.4h7.9c8.3 0 13.5-4.5 13.5-11.4s-5.6-11.1-13.8-11.1a33.5 33.5 0 0 0-7.7.6zm44.6 11.7c.2 10.6 6.9 15 14.8 15a28 28 0 0 0 11.9-2.2l1.4 5.6a35.2 35.2 0 0 1-14.4 2.8c-13.3 0-21.2-8.8-21.2-21.8s7.7-23.2 20.2-23.2c14.2 0 17.8 12.3 17.8 20.2a18.8 18.8 0 0 1-.3 3.7zm23-5.6c.1-4.9-2-12.6-10.9-12.6s-11.4 7.2-12 12.6zm16.2 17.8a22.1 22.1 0 0 0 10.4 3c5.6 0 8.3-2.8 8.3-6.4s-2.2-5.7-7.9-7.8c-7.8-2.9-11.5-7-11.5-12.2 0-6.9 5.7-12.6 14.9-12.6a20 20 0 0 1 10.5 2.7l-1.9 5.7a16.7 16.7 0 0 0-8.8-2.6c-4.6 0-7.1 2.7-7.1 5.9s2.5 5.2 8.1 7.4c7.4 2.8 11.3 6.5 11.3 12.9s-6 13-16 13a24.6 24.6 0 0 1-12.1-3zm67 6.4a30.3 30.3 0 0 1-12.4 2.5c-13 0-21.5-8.8-21.5-22s9.1-23 23.2-23a24.6 24.6 0 0 1 10.9 2.3l-1.8 6a19.3 19.3 0 0 0-9.1-2c-9.9 0-15.2 7.4-15.2 16.3s6.4 16.1 15 16.1a22.4 22.4 0 0 0 9.6-2zm45.3-10.3c0 4.5.1 8.5.4 11.8h-6.9l-.4-7h-.3a16.1 16.1 0 0 1-14.3 8c-6.8 0-14.9-3.8-14.9-18.9V86h7.8v23.8c0 8.2 2.6 13.8 9.6 13.8a11.3 11.3 0 0 0 10.3-7.2 10.7 10.7 0 0 0 .7-4V86h7.8zm17.4-8.3c.2 10.6 6.9 15 14.8 15a28 28 0 0 0 11.9-2.2l1.4 5.6a35.2 35.2 0 0 1-14.4 2.8c-13.3 0-21.2-8.8-21.2-21.8s7.7-23.2 20.2-23.2c14.2 0 17.8 12.3 17.8 20.2a18.8 18.8 0 0 1-.3 3.7zm23-5.6c.1-4.9-2-12.6-10.9-12.6s-11.4 7.2-12 12.6z"/></svg>