<svg xmlns="http://www.w3.org/2000/svg" width="417" height="500" data-name="Layer 1" viewBox="0 0 417 500"><defs><clipPath id="a"><path fill="none" d="M42.2 59.9h410.6v145.52H42.2z"/></clipPath></defs><path fill="#f2f2f2" d="M3.7 7h406v486H3.7z"/><path fill="#333" d="M25.3 216.2h116.9v3.08H25.3zm0 6.1h116.9v3.08H25.3zm0 6.2h116.9v3.08H25.3zm0 6.1h116.9v3.08H25.3zm0 6.2h116.9v3.08H25.3zm0 6.1h116.9v3.08H25.3zm0 6.2h116.9v3.08H25.3zm0 6.1h116.9v3.08H25.3zm0 6.2h116.9v3.08H25.3zm0 6.1H93v3.08H25.3zm0 9.3h116.9v3.08H25.3zm0 6.1h116.9v3.08H25.3zm0 6.2h116.9v3.08H25.3zm0 6.1h116.9v3.08H25.3zm0 6.2h116.9v3.08H25.3zm0 6.1h116.9v3.08H25.3zm0 6.2h116.9v3.08H25.3zm0 6.1h116.9v3.08H25.3zm0 6.2h116.9v3.08H25.3zm0 6.1H93v3.08H25.3zm0 9.3h116.9v3.08H25.3zm0 6.1h116.9v3.08H25.3zm0 6.2h116.9v3.08H25.3zm0 6.1h116.9v3.08H25.3zm0 6.2h116.9v3.08H25.3zm0 6.1h116.9v3.08H25.3zm0 6.2h116.9v3.08H25.3zm0 6.1h116.9v3.08H25.3zm0 6.2h116.9v3.08H25.3zm0 6.1H93v3.08H25.3zm0 9.2h116.9v3.08H25.3zm0 6.2h116.9v3.08H25.3zm0 6.2h116.9v3.08H25.3zm0 6.1h116.9v3.08H25.3zm0 6.2h116.9v3.08H25.3zm0 6.1h116.9v3.08H25.3zm0 6.2h116.9v3.08H25.3zm0 6.1h116.9v3.08H25.3zm0 6.2h116.9v3.08H25.3zm0 6.1H93v3.08H25.3zm123-249.1h116.9v3.08H148.3zm0 6.1h116.9v3.08H148.3zm0 6.2h116.9v3.08H148.3zm0 6.1h116.9v3.08H148.3zm0 6.2h116.9v3.08H148.3zm0 6.1h116.9v3.08H148.3zm0 6.2h116.9v3.08H148.3zm0 6.1h116.9v3.08H148.3zm0 6.2h116.9v3.08H148.3zm0 6.1H216v3.08h-67.7zm0 9.3h116.9v3.08H148.3zm0 6.1h116.9v3.08H148.3zm0 6.2h116.9v3.08H148.3zm0 6.1h116.9v3.08H148.3zm0 6.2h116.9v3.08H148.3zm0 6.1h116.9v3.08H148.3zm0 6.2h116.9v3.08H148.3zm0 6.1h116.9v3.08H148.3zm0 6.2h116.9v3.08H148.3zm0 6.1H216v3.08h-67.7zm0 9.3h116.9v3.08H148.3zm0 6.1h116.9v3.08H148.3zm0 6.2h116.9v3.08H148.3zm0 6.1h116.9v3.08H148.3zm0 6.2h116.9v3.08H148.3zm0 6.1h116.9v3.08H148.3zm0 6.2h116.9v3.08H148.3zm0 6.1h116.9v3.08H148.3zm0 6.2h116.9v3.08H148.3zm0 6.1H216v3.08h-67.7zm0 9.2h116.9v3.08H148.3zm0 6.2h116.9v3.08H148.3zm0 6.2h116.9v3.08H148.3zm0 6.1h116.9v3.08H148.3zm0 6.2h116.9v3.08H148.3zm0 6.1h116.9v3.08H148.3zm0 6.2h116.9v3.08H148.3zm0 6.1h116.9v3.08H148.3zm0 6.2h116.9v3.08H148.3zm0 6.1H216v3.08h-67.7zm123-249.1h116.9v3.08H271.3zm0 6.1h116.9v3.08H271.3zm0 6.2h116.9v3.08H271.3zm0 6.1h116.9v3.08H271.3zm0 6.2h116.9v3.08H271.3zm0 6.1h116.9v3.08H271.3zm0 6.2h116.9v3.08H271.3zm0 6.1h116.9v3.08H271.3zm0 6.2h116.9v3.08H271.3zm0 6.1H339v3.08h-67.7zm0 9.3h116.9v3.08H271.3zm0 6.1h116.9v3.08H271.3zm0 6.2h116.9v3.08H271.3zm0 6.1h116.9v3.08H271.3zm0 6.2h116.9v3.08H271.3zm0 6.1h116.9v3.08H271.3zm0 6.2h116.9v3.08H271.3zm0 6.1h116.9v3.08H271.3zm0 6.2h116.9v3.08H271.3zm0 6.1H339v3.08h-67.7z"/><path fill="#4d4d4d" d="M271.3 345.4h116.9v123.04H271.3z"/><path fill="#333" d="M25.3 25.5h363v33.84h-363z"/><path fill="#4d4d4d" d="M25.3 71.6h363v132.27h-363z"/><g fill="#ccc" clip-path="url(#a)"><path d="M138.7 112.1c-4.2 10.6-7.5 22.7-2.7 33.6 3.2 7.2 12.9 16.7 21.5 15.2s17.8-11.1 19.9-19.2c3-11.7.9-25.3-2.3-36.7a.2.2 0 0 0-.4.1 86.5 86.5 0 0 1 3.3 28.6c-.7 11.4-6.2 19.2-16 24.8s-24-6.3-26.9-16.6.2-20.3 4-29.7c.1-.3-.3-.4-.4-.1z"/><path d="M174.9 105.2c-5.9-.2-11.8-.5-17.8-1-3.3-.3-9.6-2.5-12.6-.8-.8.5-1.4 2.1-1.8 2.8a53.5 53.5 0 0 1-4.1 6.5c-4.1 5.4-11.5 11.4-18.5 7.4a.2.2 0 0 0-.2.4c7.2 4.2 14.9-1.8 19.2-7.5 1.6-2 2.6-4.5 4.1-6.5 2.9-3.7 5.9-2.6 10-2.2 7.2.8 14.4 1.3 21.7 1.4a.2.2 0 0 0 0-.5z"/><path d="M136.6 116.6c-3 4.3-2.8 9.8-5.3 14.4s-7.9 9.8-11.6 14.8c-5 6.6-8.2 15.5-2.6 22.8.2.2.6 0 .4-.2-8.1-10.7 2.2-21.8 8.9-29.8a41 41 0 0 0 6.5-9.5c1.8-4 1.7-8.6 4.2-12.3.2-.2-.2-.5-.4-.2z"/><path d="M134 139.4a12.2 12.2 0 0 0-.8 4.7c-.1 4-2.2 6.3-5.4 8.5s-6.3 4.6-8.2 8.1-1.5 11.2 4.3 13c.3.1.4-.4.1-.4-8.6-2.8-5-12.4-.5-16.8 2.3-2.2 5.3-3.5 7.6-5.6s1.6-7.2 3.3-11.4c.1-.3-.3-.4-.4-.1z"/><path d="M134.3 142.1c-2.4 6.4-.6 12.7 2.6 18.5 2.1 3.8 5.3 7.4 6.6 11.6 1.9 6.1-4.5 15.4-11.4 15.1-.3 0-.3.5 0 .5 6.3.2 13.3-7.9 12.3-14-.7-4.2-3.8-7.8-5.9-11.3-3.8-6.2-6.4-13.1-3.8-20.2.1-.3-.3-.4-.4-.1z"/><path d="M134.3 155.8c4.6 13.3-10.7 17.1-16 26.5-2.6 4.6-1.4 10.9 4.5 11.3.3 0 .3-.4 0-.5q-8.3-3.9-4.1-10.6a14.9 14.9 0 0 1 2.5-3.1c1.1-1.2 2.4-2.2 3.6-3.3a71 71 0 0 0 7.9-7.8c3.6-4.3 4-7.3 2.2-12.6-.1-.3-.5-.2-.4.1zm13.4-53.2l-3.1-1-.5-1.5a11.3 11.3 0 0 1-.3-2.5 11.6 11.6 0 0 1 1-5c1.7-3.7 5.8-5.9 9.7-4.1.3.1.5-.3.2-.4-4.6-2.1-9.4 1-10.8 5.6-.8 2.7-1 11.6 4.1 9.4.3-.1 0-.5-.2-.4z"/><path d="M155 102.8c-3-5.2-4.7-11.8 2.1-14.7.3-.1 0-.5-.2-.4-2.8 1.2-4.8 2.7-5 5.9s1.2 6.6 2.8 9.5a.2.2 0 0 0 .4-.2zm6 .9c3.3-.6 5-6.1 5.3-8.9s-1-6-3.9-7.1c-.3-.1-.4.3-.1.4 3.4 1.2 4.1 4.9 3.3 8.1s-2 6.5-4.6 7c-.3.1-.2.5.1.4z"/><path d="M170.2 104.8c4.6-.3 8.2-4.3 6.9-9.1s-7.2-7.3-12-7c-.3 0-.3.5 0 .5 3.7-.2 7.5.8 9.9 3.7a6.9 6.9 0 0 1-4.9 11.5c-.3 0-.3.5 0 .5zm-6.4-16.3c-2.1-1.6-5.2-3.4-7.4-1-.2.2.1.5.3.3 2.1-2.3 5-.4 6.9 1.1.2.2.5-.2.2-.4zm-17.9.5c-5-.4-8.3 3-11.3 6.7a110.5 110.5 0 0 0-10.6 15.4c-5.9 10.5-8.9 22.6-5.5 34.4a.2.2 0 0 0 .4-.1c-3.1-11.1-.6-22.5 4.7-32.6a95.1 95.1 0 0 1 7.3-11.5c3.5-4.8 8.1-12.5 15-11.9.3 0 .3-.4 0-.5z"/><path d="M117.4 130.2c-2 8.2-9.4 8.8-14.1 14.6a16.4 16.4 0 0 0-2.8 14.6.2.2 0 0 0 .4 0c2.1-10.3 13.6-7.9 18.3-15.3.2-.3-.2-.5-.4-.2-3.2 5-10.1 5.1-14.4 8.8-1.3 1.1-1.9 2.5-3 3.6s-.4 1.7-.8 1.6-.2-4.9-.1-5.4c1.1-7.1 5.9-9.9 11.4-13.6a13.2 13.2 0 0 0 6-8.6c.1-.3-.4-.4-.4-.1zm-2.4 22.5c-2 4.4-5 7.5-8.4 10.9s-4.5 4.8-4.8 8.1c-.5 5 4.6 10.7 8.6 13a.2.2 0 0 0 .2-.4 19.7 19.7 0 0 1-6.7-6.9c-3.2-5.5-.7-9.6 3-13.5s6.3-6.5 8.4-11c.1-.3-.3-.5-.4-.2z"/><path d="M113.2 162.8c.4 5.8-5.7 9.4-5.5 15.5s3 9 6.2 12.6c.2.2.5-.1.3-.3-4.9-5.5-8.3-12.6-3.9-19.6 1.8-2.8 3.6-4.8 3.4-8.2 0-.3-.5-.3-.5 0z"/><path d="M115.6 167.8c5.8 5.9-.3 9.5-2.4 14.3a12.8 12.8 0 0 0-.9 6c.6 7 8.3 8.9 9 15.5 0 .3.5.3.5 0-.3-2.8-.9-4.5-3.1-6.4-4.6-4-7.7-8.6-5-14.9s8.3-8.7 2.2-14.9c-.2-.2-.5.1-.3.3zm16.5.2c-3.5 4.7-1.4 10.8-.4 16.1s1.3 10.2-3.2 14.8a25.4 25.4 0 0 0-5 6.1c-.1.3.3.5.4.2 2.4-4.6 8.1-7.2 9.3-12.4 1.8-8-6.1-17-.5-24.6.2-.2-.2-.5-.4-.2zm47.5-59.7c4.3 1.1 9.4.9 13 3.3q3.5 1 2.8 4.7.2 1.8.2 3.6a63.8 63.8 0 0 1-.2 7.1.2.2 0 0 0 .3.2 12.3 12.3 0 0 0 7.9-6.3c2-4 .3-6.7-1.4-10.4s-2.1-6-5.6-6.2c-5.6-.4-12.2 2-17.4 4-.3.1-.2.6.1.4a65.9 65.9 0 0 1 8.8-2.7c4.9-1.1 9.3-2.8 12.5 2.3 2.2 3.5 4 8.5 2.4 12.4-.6 1.6-2.9 4.8-4.8 5s-2.1-2.3-2.1-4.1.5-8.9-2.1-11.1a5.8 5.8 0 0 0-3.2-.9 78 78 0 0 1-11.2-1.7.2.2 0 0 0-.1.4zm22-.1a11.1 11.1 0 0 0 6.4 2.8c.3 0 .3-.4 0-.5a10.6 10.6 0 0 1-6.1-2.7c-.2-.2-.5.1-.3.3z"/><path d="M204 117c3-3 5.2-7.1 8.9-9.4 5.9-3.7 12.9-.8 17.4 3.6 6.4 6.2 9.4 14.9 16.4 20.6.2.2.6-.1.3-.3-8.7-7-11.9-20.6-22.9-24.9s-14.3 4-20.5 10.2a.2.2 0 0 0 .3.3z"/><path d="M224.4 106.6c3 1.2 5.7 1.1 8.8 1.2 5.7.3 9.4 2.7 13.1 6.8 1.7 1.8 3.3 3.8 3.9 6.2s-.6 4.3-.6 7.1a5.2 5.2 0 0 0 1.8 3.9c2.6 2.8 6 5 8.9 7.5s3.5 6.8 1.8 10.3-2.2 4.8-6.5 5.5c-2.2.3-4.4.1-6.6.2-4.9.3-8.8.1-13.3-2.5s-6.6-3.9-10.1-5.5c-1.4-.7-3.2-1.7-4.8-1.5s-3.1 2-1.8 3.9 6.1 4.3 8.7 5.9l9.9 6.2c4.5 2.8 9.5 6.2 14.7 3.1a.2.2 0 0 0-.2-.4c-5.7 3.3-11.3-1.2-15.9-4.2l-9.9-6.2-3.3-2.1q-3-.7-.8-3.2.2-4 3.3-1.1l3.2 1.6c3.1 1.6 6 3.6 9.1 5.2 5.2 2.5 12.3 1.8 17.9 1.2a8.8 8.8 0 0 0 4.8-1.7c2.1-1.7 1.8-3.8 3-6.1s1-5.4-2.2-8.2-6.2-4.4-8.5-7.2-1.6-6.2-1.9-10.2-5.3-9.5-9-12.2c-5.4-3.9-11.6-1.4-17.5-3.8-.3-.1-.4.3-.1.4z"/><path d="M250.2 119.9a1.6 1.6 0 0 0-2.6.3c-.6 1.5.9 2.6 2 3.2a.2.2 0 0 0 .2-.4c-.8-.5-1.9-1.1-1.9-2.2a1.1 1.1 0 0 1 1.9-.6c.2.2.5-.1.3-.3zm-30.6 1a11.4 11.4 0 0 0 2.8-.1c1.2-.2 3.1-1.3 4.4-.7s1.7 2.1 3.2 2.4.4-.4.1-.4-2.2-2.4-3.9-2.6a4.2 4.2 0 0 0-1.9.4 11.3 11.3 0 0 1-4.7.6c-.3 0-.3.4 0 .5z"/><path d="M230.3 122.2a7.3 7.3 0 0 0-3.1.1 6.9 6.9 0 0 1-2.9.2 8.5 8.5 0 0 1-3.1-1.8c-.2-.2-.6.1-.3.3a8 8 0 0 0 3.9 2c1.9.2 3.6-.9 5.5-.5.3.1.4-.4.1-.4zm2.7-34.7c.6 5.3-3.5 7.7-5.6 12-1.1 2.3-1.7 4.5-.6 6.8.1.3.5 0 .4-.2-1.2-2.5.1-5.6 1.4-7.8s2.7-3.2 3.9-4.9 1.2-3.7.9-5.9c0-.3-.5-.3-.5 0z"/><path d="M233 87.1c5.3 1.8 1.9 8.6 1.5 12.1a23.5 23.5 0 0 0 .3 6.4c0 .3.5.2.4-.1a22.8 22.8 0 0 1 .3-9.2 17.1 17.1 0 0 0 .9-5.1 4.8 4.8 0 0 0-3.3-4.5c-.3-.1-.4.3-.1.4z"/><path d="M235.7 90.3a48.9 48.9 0 0 0 1 7.7c.7 3.1 2 6 2.2 9.2 0 .3.5.3.5 0-.1-2.4-1-4.7-1.7-7a47.3 47.3 0 0 1-1.5-9.9c0-.3-.5-.3-.5 0zm-1.5 14.1l.3 2.2c0 .3.5.2.4-.1l-.3-2.2c0-.3-.5-.2-.4.1zm18.1 59.9a8 8 0 0 0 .7-7.9c-.1-.3-.5 0-.4.2a7.5 7.5 0 0 1-.7 7.4c-.2.2.2.5.4.2z"/><path d="M224.2 147.5c1 5.8 9.3 7.9 13.7 10.1a86.1 86.1 0 0 1 9.7 6c2 1.3 3.3 1.7 5.4.6.3-.1 0-.5-.2-.4s-5.6-1.7-7-2.5l-1.5-1a66.2 66.2 0 0 0-6.9-3.5c-4.2-2-11.8-4.2-12.8-9.4-.1-.3-.5-.2-.4.1z"/><path d="M253.1 161.6a8.4 8.4 0 0 1-12.6 5.4c-2.5-1.4-4.4-3.5-7-4.7-5.5-2.8-12.5-3-18.5-4-.3 0-.4.4-.1.4 5 .8 10.4 1.3 15.2 2.8s7.6 5.4 12.2 6.9 10-1.7 11.2-6.6c.1-.3-.4-.4-.4-.1z"/><path d="M229.3 160.7a15 15 0 0 1-12 6.8c-.3 0-.3.5 0 .5a15.5 15.5 0 0 0 12.4-7c.2-.2-.2-.5-.4-.2zm.7.5a71.4 71.4 0 0 0-5.9 13.6c-.1.3.4.4.4.1a70.9 70.9 0 0 1 5.9-13.5.2.2 0 0 0-.4-.2zm-52.8 16.2a91 91 0 0 0 21.6 2.3 88.3 88.3 0 0 0 10.9-.9l5.4-.9c1.8-.4 4.4-1.6 6.2-1.5s2.6.8.7 5.4a17.5 17.5 0 0 1-3.7 1.6 45 45 0 0 1-5 1.3 66 66 0 0 1-12.8 1.4 67.7 67.7 0 0 1-24.5-4.4c-.3-.1-.4.3-.1.4a67.8 67.8 0 0 0 29 4.2c5.6-.4 17.5-.9 20.3-7s-8.7-2.1-10.9-1.7a89.1 89.1 0 0 1-36.7-.6c-.3-.1-.4.4-.1.4z"/><path d="M223.8 175.9a3.4 3.4 0 0 0 2.1-1.4c.7-.9 1.5-3.8 3-2.1a4 4 0 0 1 .5 2c-.1 1.5-1 2-2.1 2.7l-3.6 2.3c-.2.2 0 .6.2.4s3.8-2.1 5.2-3.5.8-2.6.3-3.9-.5-1.8-1.5-1.5-1 1-1.3 1.4-1.3 2.6-2.9 2.9-.2.5.1.4z"/><path d="M226.8 177.7a1.7 1.7 0 0 0 .5 2.2c1.5 1.3 3.9.2 4.8 2.3a2.9 2.9 0 0 1-3.6 3.9c-2.9-.8-3-4.4-1.2-6.4.2-.2-.1-.5-.3-.3a4.7 4.7 0 0 0-.9 5.4 4 4 0 0 0 4.7 1.7 3.3 3.3 0 0 0 1.9-3.9 3.1 3.1 0 0 0-1.2-1.8c-.9-.6-5.6-.7-4.3-2.8a.2.2 0 0 0-.4-.2z"/><path d="M229.5 176.3a23.9 23.9 0 0 1 6.3 11.9c.1.3.5.2.4-.1a24.3 24.3 0 0 0-6.4-12.1c-.2-.2-.5.1-.3.3zm-5 21.1a54.2 54.2 0 0 0 8.9-4.6 23.1 23.1 0 0 0 2.8-2.2c2.4-2.3 4.7-1.7 7.1.3.2.2.6-.1.3-.3-1.8-1.5-4.1-3.5-6.2-1.9s-3.8 3.6-6.2 5a70.5 70.5 0 0 1-6.9 3.4c-.3.1 0 .5.2.4z"/><path d="M234.4 184.6c5.2 3.8 13.1 3.5 15.7 10 3.4 8.5-6.9 14-12.8 18.2-.2.2 0 .6.2.4 5.5-3.9 14.8-8.8 14-16.8s-11.8-8.5-16.9-12.2c-.2-.2-.5.2-.2.4z"/><path d="M225.1 196.3c-2-.4-2.4 1.8-.8 2.9s4.4.7 6.1.7a28.8 28.8 0 0 0 8.4-1.3c.3-.1.2-.5-.1-.4a27.9 27.9 0 0 1-7.2 1.3h-4q-3.1.7-2.5-2.6c.3.1.4-.4.1-.4z"/><path d="M239 196.2a15.6 15.6 0 0 1-5.9 5.1c-2.1 1-4.5 1.5-6.4 2.8s-3.4 3.3-3 5.6c1.2 6.2 12.7 4.6 16.7 3.2.3-.1.2-.5-.1-.4a22.1 22.1 0 0 1-9.9 1c-2-.2-4.7-.7-5.8-2.7-2.1-3.6 1.9-6.2 4.4-7.3 4.2-1.9 7.6-3.1 10.4-7.1.2-.2-.2-.5-.4-.2zm-63.3-15.3c-5.8 7.1-10.1 15.4-7.9 24.7.1.3.5.2.4-.1-2.2-9.2 2.1-17.3 7.8-24.3.2-.2-.1-.6-.3-.3zM102.6 145c-22.8 14.6-40.5 37-43.4 64.6 0 .3.4.3.5 0 2.9-27.5 20.5-49.7 43.1-64.2.2-.2 0-.6-.2-.4z"/><path d="M62.2 190.8c1.7 4 4.9 6.6 8.6 8.8a65.3 65.3 0 0 0 7.4 3.8c1.3.6 3.7 2.2 5 1.8a3.8 3.8 0 0 0 1.1-.8 16.7 16.7 0 0 0 1.2-2.5 16.6 16.6 0 0 1 3.5-4.8c3.1-2.8 4.3-3.4 3.5-7.9 0-.3-.5-.2-.4.1.9 5-3 6.4-5.4 9.7-.6.8-1 1.8-1.6 2.6a2.9 2.9 0 0 1-1.4 1.5q-1 2.4-2.9.8c-3.2-.4-7.5-3.4-10.2-5.1s-6.1-4.6-7.8-8.3c-.1-.3-.5 0-.4.2z"/><path d="M92.6 193.2c3.7.1 4.1-4.5 6.2-6.5.2-.2-.1-.5-.3-.3-1.9 1.9-2.4 6.5-5.8 6.4-.3 0-.3.4 0 .5zm77.8-41.8c-8.9 6.8-10.5 24.3 2.8 26.8.3.1.4-.4.1-.4-13.1-2.4-11.3-19.4-2.7-25.9.2-.2 0-.6-.2-.4z"/><path d="M163.5 166.7c-.7 2.8.6 4 1.4 6.7 1.3 4.6-.9 7.6-2.3 11.7s.2 7.7 3.5 10c.2.2.5-.2.2-.4-4.1-2.9-4.3-7.2-2.3-11.4a16.8 16.8 0 0 0 1.9-4.8c.6-4-2.8-7.8-1.9-11.6.1-.3-.4-.4-.4-.1zm11.2-74.1a20.8 20.8 0 0 1 9.3 13.3c.1.3.5.2.4-.1a21.3 21.3 0 0 0-9.5-13.6c-.3-.2-.5.2-.2.4zm9.3 16.9a48.9 48.9 0 0 0 1 9.6c.9 3.6 3.1 6.4 4.1 9.9s-.3 4.5-1.2 7.5a18.6 18.6 0 0 0-.8 4.1 18.2 18.2 0 0 0 1.8 9c.1.3.5 0 .4-.2-2.6-5.8-1.8-10.2.3-15.8.6-1.7 1.4-3.2.8-5s-3.6-4.9-4.6-8-1.2-7.3-1.3-11c0-.3-.5-.3-.5 0z"/><path d="M178.2 118.7c.5 7.9 7.6 13.2 8.7 20.9 0 .3.5.3.5 0-1-7.8-8.1-13-8.7-20.9 0-.3-.5-.3-.5 0zm-.6 17.8c-.1 4.8-1.3 9.5-.6 14.3s2.4 8.3 4.1 12.2c.1.3.5 0 .4-.2-2-4.7-4.1-9.5-4.3-14.7s.7-7.7.8-11.6a.2.2 0 0 0-.5 0z"/><path d="M195.9 125.7c-3.5 19.7-17.1 35.8-20 55.7 0 .3.4.4.4.1 2.8-19.9 16.5-36 20-55.7.1-.3-.4-.4-.4-.1zm-53.4-.3c2.6.4 5.2-.5 7.8.2.7.2 2.3.6 1.7 1.4s-1.1.4-1.7.3a19.1 19.1 0 0 1-5.7-1.6c-.3-.1-.5.3-.2.4 2.3 1 5.9 2.3 8.6 1.6l.2-.2c.3-1.1-1.3-1.9-2.1-2.3-2.7-1-5.6.1-8.3-.3-.3 0-.4.4-.1.4zm31.4 3.2a20 20 0 0 0-6.7-2.1c-1.1-.1-4-.1-4.5 1.3s.5 1.4 1.3 1.6a14.6 14.6 0 0 0 3.1 0h4.8a.2.2 0 0 0 0-.5h-4c-.5 0-5.3.4-3.5-1.7s3.8-.2 4.6 0a25.3 25.3 0 0 1 4.6 1.8c.3.1.5-.3.2-.4zM145.6 143c3.8-.1 7.1 2.2 10.8 2.8 2.2.4 4.5-.3 6.6.1a1.5 1.5 0 0 1 1.2 0 8.8 8.8 0 0 1-3.6 2 11.9 11.9 0 0 1-4.3.4c-4-.3-7.6-2.5-11-4.4a.2.2 0 0 0-.2.4c6.1 3.5 14.5 7.5 20.3 1.1a.2.2 0 0 0-.2-.4 22.2 22.2 0 0 1-11.9-.5c-2.6-.9-4.7-2-7.5-2a.2.2 0 0 0 0 .5zm7.9-3.2a2.6 2.6 0 0 1 1.6.8c.2.2.5-.1.3-.3a3 3 0 0 0-1.8-.9c-.3 0-.4.4-.1.4zm6.4 1.6a1.7 1.7 0 0 1 1.5-.7c.3 0 .3-.4 0-.5a2.2 2.2 0 0 0-1.9.9c-.2.2.2.5.4.2zm-9.7-4.7a28.3 28.3 0 0 0-5.8 4.7c-.2.2.1.5.3.3a27.9 27.9 0 0 1 5.7-4.7c.3-.2 0-.6-.2-.4zm13.5 2.8c.4.6 4.6 5.8 4 6.2s0 .6.2.4.2-1.4-.2-2l-3.6-4.9c-.2-.2-.6 0-.4.2zm-11-17.2a24 24 0 0 0-11.6-1.6c-.3 0-.3.5 0 .5a23.9 23.9 0 0 1 11.5 1.6c.3.1.4-.3.1-.4zm10.7 1.5h6.3c1.8 0 5.1-.6 5.9 1.6.1.3.6.2.4-.1a3 3 0 0 0-2.8-1.9c-3.2-.4-6.6 0-9.8 0a.2.2 0 0 0 0 .5zm-65.6 63c-.4 5.2-5.4 9.3-7.4 13.9a70.9 70.9 0 0 0-3.8 12.3c-.1.3.4.4.4.1 1.4-5.8 2.9-11.7 6.2-16.7 2.1-3.2 4.7-5.7 5-9.6 0-.3-.4-.3-.5 0zm-15 17.5v5.8a.2.2 0 0 0 .5 0v-5.8a.2.2 0 0 0-.5 0zm54.3 8.9c3.8-6.4 5.7-17.2 14.1-19.2 11.1-2.6 16.2 9.8 15.8 18.6 0 .3.4.3.5 0 .4-8.2-2.9-17.9-12.2-19.2-11.3-1.6-14.1 12.2-18.5 19.5a.2.2 0 0 0 .4.2z"/></g></svg>